<?xml version="1.0" encoding="UTF-8" standalone="no"?>
<!DOCTYPE svg PUBLIC "-//W3C//DTD SVG 1.1//EN" "http://www.w3.org/Graphics/SVG/1.1/DTD/svg11.dtd">
<svg version="1.1" xmlns="http://www.w3.org/2000/svg" xmlns:xlink="http://www.w3.org/1999/xlink" preserveAspectRatio="xMidYMid meet" viewBox="0 0 300 300" width="300" height="300"><defs><path d="M152.15 60.87L242.57 151.28L153.32 240.53L62.9 150.12L152.15 60.87Z" id="b3jLWxLLBP"></path><path d="M255.2 111.18L254.1 54.63L197.54 54.04L215.82 72.15L186.41 101.83L207.56 122.79L236.97 93.11L255.2 111.18Z" id="a6jbjXRG6D"></path><path d="M107.45 53.64L51.02 57.4L53.1 113.92L70.33 94.81L101.36 122.79L121.3 100.67L90.27 72.7L107.45 53.64Z" id="ccxqueZb7"></path><path d="M51.02 188.85L51.86 245.4L108.42 246.25L90.22 228.05L119.76 198.51L98.71 177.45L69.16 207L51.02 188.85Z" id="dfMy7zGAq"></path><path d="M198.67 246.36L255.2 244.5L255.02 187.94L237.16 206.46L207.09 177.45L186.41 198.89L216.48 227.89L198.67 246.36Z" id="aZhTjT1DP"></path></defs><g><g><g><use xlink:href="#b3jLWxLLBP" opacity="1" fill="#6233a5" fill-opacity="1"></use></g><g><use xlink:href="#a6jbjXRG6D" opacity="1" fill="#6233a5" fill-opacity="1"></use></g><g><use xlink:href="#ccxqueZb7" opacity="1" fill="#6233a5" fill-opacity="1"></use></g><g><use xlink:href="#dfMy7zGAq" opacity="1" fill="#6233a5" fill-opacity="1"></use></g><g><use xlink:href="#aZhTjT1DP" opacity="1" fill="#6233a5" fill-opacity="1"></use></g></g></g></svg>